<?xml version="1.0" encoding="utf-8"?>
<!-- Generator: Adobe Illustrator 25.0.0, SVG Export Plug-In . SVG Version: 6.00 Build 0)  -->
<svg version="1.1" id="Layer_1" xmlns="http://www.w3.org/2000/svg" xmlns:xlink="http://www.w3.org/1999/xlink" x="0px" y="0px"
	 viewBox="0 0 800 800" style="enable-background:new 0 0 800 800;" xml:space="preserve">
<style type="text/css">
	.st0{fill:#264DE4;}
	.st1{fill:#2965F1;}
	.st2{fill:#EBEBEB;}
	.st3{fill:#FFFFFF;}
</style>
<path class="st0" d="M399.7,728l-230.9-64.1L117.3,86.8h565.3l-51.5,577L399.7,728L399.7,728z"/>
<path class="st1" d="M587.1,627.1l44-493.1H400v544.9L587.1,627.1L587.1,627.1z"/>
<path class="st2" d="M235.3,348l6.3,70.8H400V348H235.3z M222.5,204.8l6.4,70.8h171v-70.8L222.5,204.8L222.5,204.8z M400,531.8
	l-0.3,0.1l-78.8-21.3l-5-56.4h-71l9.9,111.1l145,40.2l0.3-0.1V531.8z"/>
<path class="st3" d="M564.3,348L577,204.8H399.8v70.8h99.7L493,348h-93.3v70.8h87.2l-8.2,91.8l-78.9,21.3v73.6l145.1-40.2l1.1-12
	L562.5,367L564.3,348L564.3,348z"/>
</svg>
