<?xml version="1.0" encoding="utf-8"?>
<!-- Generator: Adobe Illustrator 25.0.0, SVG Export Plug-In . SVG Version: 6.00 Build 0)  -->
<svg version="1.1" id="Layer_1" xmlns="http://www.w3.org/2000/svg" xmlns:xlink="http://www.w3.org/1999/xlink" x="0px" y="0px"
	 viewBox="0 0 800 800" style="enable-background:new 0 0 800 800;" xml:space="preserve">
<style type="text/css">
	.st0{fill:#E44D26;}
	.st1{fill:#F16529;}
	.st2{fill:#EBEBEB;}
	.st3{fill:#FFFFFF;}
</style>
<g>
	<path class="st0" d="M682.7,96.8l-51.5,577L399.7,738l-230.9-64.1L117.3,96.8L682.7,96.8L682.7,96.8z"/>
	<path class="st1" d="M400,688.9L587.1,637l44-493.1H400V688.9z"/>
	<path class="st2" d="M299.9,285.6H400v-70.8H222.5l1.7,19l17.4,195H400V358h-93.7L299.9,285.6z M315.8,464.2h-71l9.9,111.1
		l145,40.2l0.3-0.1v-73.6l-0.3,0.1l-78.8-21.3L315.8,464.2L315.8,464.2z"/>
	<path class="st3" d="M399.8,428.8H487l-8.2,91.8l-78.9,21.3v73.6L545,575.3l1.1-12L562.5,377l1.7-19H399.8V428.8L399.8,428.8z
		 M399.8,285.4v0.2h171l1.4-15.9l3.2-35.9l1.7-19H399.8V285.4L399.8,285.4z"/>
</g>
</svg>
